# xmcd
#
# Track frame offsets:
#	150
#	10658
#	22692
#	33385
#	43906
#	54110
#	65285
#	78009
#	89368
#	101613
#	112465
#	123804
#	138008
#	149382
#
# Disc length: 2188 seconds
# Revision: 0
# Processed by: cddbd v1.5.2PL0 Copyright (c) Steve Scherf et al.
# Submitted via: dBpowerAMP V12.0
#
DISCID=a8088a0e
DTITLE=High Fidelity - Hills And Home
DYEAR=2018
DGENRE=Bluegrass
TTITLE0=My Saviour's Train
TTITLE1=The Leaf of Love
TTITLE2=The Hills and Home
TTITLE3=My Mother's White Rose
TTITLE4=Follow the Leader
TTITLE5=I've Changed My Mind
TTITLE6=I Ain't Gonna Work Tomorrow
TTITLE7=I Will Always Be Waiting For You
TTITLE8=Maple on the Hill
TTITLE9=I Would Not Be Denied
TTITLE10=Gotta Get You Near Me Blues
TTITLE11=He's Passing This Way
TTITLE12=Grey Eagle
TTITLE13=Will the Circle Be Unbroken?
EXTD=
EXTT0=
EXTT1=
EXTT2=
EXTT3=
EXTT4=
EXTT5=
EXTT6=
EXTT7=
EXTT8=
EXTT9=
EXTT10=
EXTT11=
EXTT12=
EXTT13=
PLAYORDER=
